<?xml version="1.0" encoding="UTF-8"?>
<svg fill="#fff" width="162.24mm" height="167mm" version="1.1" viewBox="0 0 162.24 167" xmlns="http://www.w3.org/2000/svg" xmlns:cc="http://creativecommons.org/ns#" xmlns:dc="http://purl.org/dc/elements/1.1/" xmlns:rdf="http://www.w3.org/1999/02/22-rdf-syntax-ns#">
 <g transform="translate(-19.284 -26.26)">
  <path d="m45.414 105.4c2.7924-2.1573 12.402-5.8495 12.402-5.8495-16.912-14.989-34.156-33.924-37.824-53.795-0.94337-5.6926-1.4206-17.492 4.8583-19.27 10.108-1.178 12.463 12.63 14.054 19.943 1.1822 5.4453 1.2555 11.119 2.9918 16.433 1.7906 5.4803 4.6924 11.353 7.8811 16.247 3.3554 5.1506 17.836 17.893 17.836 17.893 21.771-5.4297 65.555-6.1927 92.6 2.5877-21.218-3.2892-38.728-4.6794-60.379-0.27958 22.699 0.07921 41.412 1.0682 68.082 9.7796 7.3873 3.1066 12.051 6.7868 13.178 10.95 2.2933 23.548-9.7768 47.605-33.15 59.513l-0.3534 4.8752c-15.495 10.973-61.694 11.806-76.701 0.98517l-0.89776-5.8708c8.9787 5.4734 26.624 10.204 56.777 5.8545-47.136 2.7606-72.357-10.578-86.729-38.637-4.3224-10.524-5.3356-16.715-3.9914-27.98 5.2598 14.349 42.729 23.883 100.83 11.802-48.535 5.1386-81.069-3.5995-91.85-11.522-7.013-5.1534-3.3671-10.757 0.39034-13.66z" style="stroke-width:.3037px;stroke:#000"/>
  <text x="60.402912" y="103.16604" style="fill:#000000;font-family:sans-serif;font-size:10.583px;line-height:1.25;stroke-width:.26458" xml:space="preserve"><tspan x="60.402912" y="103.16604" style="stroke-width:.26458"/></text>
 </g>
</svg>
