<?xml version="1.0" encoding="UTF-8"?>
<svg fill="#fff" width="162.07mm" height="166.7mm" version="1.1" viewBox="0 0 162.07 166.7" xmlns="http://www.w3.org/2000/svg" xmlns:cc="http://creativecommons.org/ns#" xmlns:dc="http://purl.org/dc/elements/1.1/" xmlns:rdf="http://www.w3.org/1999/02/22-rdf-syntax-ns#">
 <g transform="translate(-19.436 -26.405)">
  <path d="m45.414 105.4c2.7924-2.1573 12.402-5.8495 12.402-5.8495-16.912-14.989-34.156-33.924-37.824-53.795-0.94337-5.6926-1.4206-17.492 4.8583-19.27 10.108-1.178 10.074 11.42 10.395 18.897 0.93615 21.803 8.454 34.111 32.368 51.619 21.771-5.4297 65.555-6.1927 92.6 2.5877-21.218-3.2892-38.728-4.6794-60.379-0.27958 22.699 0.07921 41.412 1.0682 68.082 9.7796 7.3873 3.1066 12.649 6.6694 13.178 10.95 2.8983 23.481-9.7768 47.605-33.15 59.513l-0.3534 4.8752c-15.495 10.973-61.694 11.806-76.701 0.98517l-0.89776-5.8708c8.9787 5.4734 26.624 10.204 56.777 5.8545-47.136 2.7606-72.357-10.578-86.729-38.637-4.3224-10.524-5.3356-16.715-3.9914-27.98 5.2598 14.349 42.729 23.883 100.83 11.802-48.535 5.1386-81.069-3.5995-91.85-11.522-7.013-5.1534-3.3671-10.757 0.39034-13.66z" style="fill:#fff"/>
  <text x="60.402912" y="103.16604" style="fill:#000000;font-family:sans-serif;font-size:10.583px;line-height:1.25;stroke-width:.26458" xml:space="preserve"><tspan x="60.402912" y="103.16604" style="stroke-width:.26458"/></text>
  <path transform="matrix(.26458 0 0 .26458 19.284 26.26)" d="m303.65 628.67c-42.74-2.5541-79.857-11.399-101.91-24.285l-5.5903-3.2663-1.1322-7.1679c-0.6227-3.9424-1.3523-8.3308-1.6214-9.752l-0.48925-2.5841 9.6816 4.7411c42.537 20.831 106.21 27.264 184.05 18.596 16.069-1.7896 21.218-2.881 19.692-4.1738-0.23545-0.19956-9.7639 0.0363-21.174 0.52399-23.229 0.99297-62.036-0.26701-83.587-2.7139-55.832-6.3391-99.547-20.84-136.72-45.351-14.416-9.5061-21.575-15.327-34.439-28.001-35.902-35.374-59.875-79.342-66.362-121.71-1.4881-9.7192-1.897-31.163-0.81307-42.638l0.62149-6.5795 3.7792 5.6594c29.534 44.228 134.61 64.913 266.15 52.395 38.198-3.6352 111.14-15.435 111.14-17.979 0-1.0617-0.94707-1.0091-33.095 1.8374-23.331 2.0658-96.686 2.9523-121.18 1.4644-91.479-5.5573-168.66-25.79-196.92-51.624-10.367-9.4745-12.751-19.025-7.5126-30.097 5.9247-12.524 18.597-21.221 48.751-33.461 6.3844-2.5915 11.608-5.0354 11.608-5.4309s-6.335-6.5096-14.078-13.587c-50.096-45.79-88.734-93.273-109.27-134.28-16.321-32.595-23.823-65.174-21.054-91.429 1.8332-17.38 5.5504-26.508 13.35-32.78 3.4527-2.7765 4.4448-3.0555 10.867-3.0555 6.0859 0 7.8185 0.42599 12.475 3.067 8.6739 4.9199 14.339 14.935 17.376 30.723 0.75315 3.914 2.0578 18.544 2.8993 32.511 2.7089 44.965 7.6077 67.076 20.674 93.313 16.33 32.791 45.621 64.222 93.189 99.999 7.6266 5.7361 9.5912 6.7794 11.855 6.2959 28.269-6.0378 50.489-9.3104 82.735-12.185 27.959-2.4928 111.73-2.5056 139.79-0.0212 21.838 1.9332 45.398 4.8257 62.183 7.6345 14.959 2.5031 40.25 8.1377 38.758 8.635-0.64345 0.21448-6.6141-0.30361-13.268-1.1513-64.49-8.2159-117.08-8.0809-169.18 0.43425-27.09 4.428-29.089 5.8732-8.1503 5.8922 64.991 0.059 125.69 6.4145 178.29 18.667 47.786 11.131 76.058 21.153 94.177 33.385 18.294 12.35 21.584 19.999 21.65 50.341 0.17229 79.001-46.264 155.26-118.64 194.83-8.3919 4.5885-8.7365 5.2621-8.7594 17.123l-0.0109 5.637-6.6874 3.9056c-35.202 20.559-105.74 31.781-174.1 27.696z" style="fill:none"/>
 </g>
</svg>
